<?xml version="1.0" encoding="utf-8" standalone="no"?>
<!DOCTYPE svg PUBLIC "-//W3C//DTD SVG 1.1//EN"
  "http://www.w3.org/Graphics/SVG/1.1/DTD/svg11.dtd">
<svg xmlns:xlink="http://www.w3.org/1999/xlink" width="857.99952pt" height="382.79952pt" viewBox="0 0 857.99952 382.79952" xmlns="http://www.w3.org/2000/svg" version="1.1">
 <metadata>
  <rdf:RDF xmlns:dc="http://purl.org/dc/elements/1.1/" xmlns:cc="http://creativecommons.org/ns#" xmlns:rdf="http://www.w3.org/1999/02/22-rdf-syntax-ns#">
   <cc:Work>
    <dc:type rdf:resource="http://purl.org/dc/dcmitype/StillImage"/>
    <dc:date>2026-04-25T14:25:38.413815</dc:date>
    <dc:format>image/svg+xml</dc:format>
    <dc:creator>
     <cc:Agent>
      <dc:title>Matplotlib v3.10.8, https://matplotlib.org/</dc:title>
     </cc:Agent>
    </dc:creator>
   </cc:Work>
  </rdf:RDF>
 </metadata>
 <defs>
  <style type="text/css">*{stroke-linejoin: round; stroke-linecap: butt}</style>
 </defs>
 <g id="figure_1">
  <g id="patch_1">
   <path d="M 0 382.79952 
L 857.99952 382.79952 
L 857.99952 0 
L 0 0 
z
" style="fill: #ffffff"/>
  </g>
  <g id="axes_1">
   <g id="patch_2">
    <path d="M 105.060078 342.399676 
L 850.79952 342.399676 
L 850.79952 30.39125 
L 105.060078 30.39125 
z
" style="fill: #ffffff"/>
   </g>
   <g id="matplotlib.axis_1">
    <g id="xtick_1">
     <g id="line2d_1">
      <path d="M 105.060078 342.399676 
L 105.060078 30.39125 
" clip-path="url(#pad3cfd7694)" style="fill: none; stroke: #cbd5e1; stroke-opacity: 0.55; stroke-width: 0.8; stroke-linecap: square"/>
     </g>
     <g id="line2d_2">
      <defs>
       <path id="m850e54c927" d="M 0 0 
L 0 3.5 
" style="stroke: #172033; stroke-width: 0.8"/>
      </defs>
      <g>
       <use xlink:href="#m850e54c927" x="105.060078" y="342.399676" style="fill: #172033; stroke: #172033; stroke-width: 0.8"/>
      </g>
     </g>
     <g id="text_1">
      <!-- 0 -->
      <g style="fill: #172033" transform="translate(102.128047 357.393426) scale(0.1 -0.1)">
       <defs>
        <path id="MicrosoftYaHei-30" d="M 284 2325 
Q 284 3606 709 4264 
Q 1134 4922 1941 4922 
Q 3478 4922 3478 2441 
Q 3478 1216 3045 567 
Q 2613 -81 1831 -81 
Q 1094 -81 689 534 
Q 284 1150 284 2325 
z
M 909 2353 
Q 909 425 1888 425 
Q 2850 425 2850 2384 
Q 2850 4413 1906 4413 
Q 909 4413 909 2353 
z
" transform="scale(0.015625)"/>
       </defs>
       <use xlink:href="#MicrosoftYaHei-30"/>
      </g>
     </g>
    </g>
    <g id="xtick_2">
     <g id="line2d_3">
      <path d="M 191.763593 342.399676 
L 191.763593 30.39125 
" clip-path="url(#pad3cfd7694)" style="fill: none; stroke: #cbd5e1; stroke-opacity: 0.55; stroke-width: 0.8; stroke-linecap: square"/>
     </g>
     <g id="line2d_4">
      <g>
       <use xlink:href="#m850e54c927" x="191.763593" y="342.399676" style="fill: #172033; stroke: #172033; stroke-width: 0.8"/>
      </g>
     </g>
     <g id="text_2">
      <!-- 200 -->
      <g style="fill: #172033" transform="translate(182.967499 357.393426) scale(0.1 -0.1)">
       <defs>
        <path id="MicrosoftYaHei-32" d="M 2666 3572 
Q 2666 3963 2419 4186 
Q 2172 4409 1747 4409 
Q 1447 4409 1140 4256 
Q 834 4103 569 3819 
L 569 4413 
Q 806 4659 1107 4790 
Q 1409 4922 1816 4922 
Q 2472 4922 2872 4570 
Q 3272 4219 3272 3619 
Q 3272 3084 3026 2693 
Q 2781 2303 2188 1894 
Q 1581 1475 1376 1294 
Q 1172 1113 1090 947 
Q 1009 781 1009 544 
L 3416 544 
L 3416 0 
L 372 0 
L 372 241 
Q 372 659 486 951 
Q 600 1244 862 1520 
Q 1125 1797 1681 2184 
Q 2250 2584 2458 2886 
Q 2666 3188 2666 3572 
z
" transform="scale(0.015625)"/>
       </defs>
       <use xlink:href="#MicrosoftYaHei-32"/>
       <use xlink:href="#MicrosoftYaHei-30" transform="translate(58.642578 0)"/>
       <use xlink:href="#MicrosoftYaHei-30" transform="translate(117.285156 0)"/>
      </g>
     </g>
    </g>
    <g id="xtick_3">
     <g id="line2d_5">
      <path d="M 278.467108 342.399676 
L 278.467108 30.39125 
" clip-path="url(#pad3cfd7694)" style="fill: none; stroke: #cbd5e1; stroke-opacity: 0.55; stroke-width: 0.8; stroke-linecap: square"/>
     </g>
     <g id="line2d_6">
      <g>
       <use xlink:href="#m850e54c927" x="278.467108" y="342.399676" style="fill: #172033; stroke: #172033; stroke-width: 0.8"/>
      </g>
     </g>
     <g id="text_3">
      <!-- 400 -->
      <g style="fill: #172033" transform="translate(269.671015 357.393426) scale(0.1 -0.1)">
       <defs>
        <path id="MicrosoftYaHei-34" d="M 2906 4841 
L 2906 1644 
L 3631 1644 
L 3631 1138 
L 2906 1138 
L 2906 0 
L 2313 0 
L 2313 1138 
L 53 1138 
L 53 1616 
Q 656 2294 1265 3178 
Q 1875 4063 2272 4841 
L 2906 4841 
z
M 741 1644 
L 2313 1644 
L 2313 3950 
Q 1988 3366 1616 2817 
Q 1244 2269 741 1644 
z
" transform="scale(0.015625)"/>
       </defs>
       <use xlink:href="#MicrosoftYaHei-34"/>
       <use xlink:href="#MicrosoftYaHei-30" transform="translate(58.642578 0)"/>
       <use xlink:href="#MicrosoftYaHei-30" transform="translate(117.285156 0)"/>
      </g>
     </g>
    </g>
    <g id="xtick_4">
     <g id="line2d_7">
      <path d="M 365.170623 342.399676 
L 365.170623 30.39125 
" clip-path="url(#pad3cfd7694)" style="fill: none; stroke: #cbd5e1; stroke-opacity: 0.55; stroke-width: 0.8; stroke-linecap: square"/>
     </g>
     <g id="line2d_8">
      <g>
       <use xlink:href="#m850e54c927" x="365.170623" y="342.399676" style="fill: #172033; stroke: #172033; stroke-width: 0.8"/>
      </g>
     </g>
     <g id="text_4">
      <!-- 600 -->
      <g style="fill: #172033" transform="translate(356.37453 357.393426) scale(0.1 -0.1)">
       <defs>
        <path id="MicrosoftYaHei-36" d="M 3181 4219 
Q 2803 4413 2391 4413 
Q 1763 4413 1381 3866 
Q 1000 3319 994 2372 
L 1009 2372 
Q 1353 3038 2106 3038 
Q 2734 3038 3109 2628 
Q 3484 2219 3484 1541 
Q 3484 831 3051 375 
Q 2619 -81 1947 -81 
Q 1209 -81 789 495 
Q 369 1072 369 2131 
Q 369 3413 920 4167 
Q 1472 4922 2372 4922 
Q 2888 4922 3181 4781 
L 3181 4219 
z
M 1031 1584 
Q 1031 1106 1286 765 
Q 1541 425 1963 425 
Q 2363 425 2613 719 
Q 2863 1013 2863 1475 
Q 2863 1975 2627 2253 
Q 2391 2531 1956 2531 
Q 1544 2531 1287 2250 
Q 1031 1969 1031 1584 
z
" transform="scale(0.015625)"/>
       </defs>
       <use xlink:href="#MicrosoftYaHei-36"/>
       <use xlink:href="#MicrosoftYaHei-30" transform="translate(58.642578 0)"/>
       <use xlink:href="#MicrosoftYaHei-30" transform="translate(117.285156 0)"/>
      </g>
     </g>
    </g>
    <g id="xtick_5">
     <g id="line2d_9">
      <path d="M 451.874139 342.399676 
L 451.874139 30.39125 
" clip-path="url(#pad3cfd7694)" style="fill: none; stroke: #cbd5e1; stroke-opacity: 0.55; stroke-width: 0.8; stroke-linecap: square"/>
     </g>
     <g id="line2d_10">
      <g>
       <use xlink:href="#m850e54c927" x="451.874139" y="342.399676" style="fill: #172033; stroke: #172033; stroke-width: 0.8"/>
      </g>
     </g>
     <g id="text_5">
      <!-- 800 -->
      <g style="fill: #172033" transform="translate(443.078045 357.393426) scale(0.1 -0.1)">
       <defs>
        <path id="MicrosoftYaHei-38" d="M 306 1350 
Q 306 1769 556 2122 
Q 806 2475 1200 2625 
Q 884 2803 700 3081 
Q 516 3359 516 3684 
Q 516 4028 692 4312 
Q 869 4597 1183 4759 
Q 1497 4922 1875 4922 
Q 2256 4922 2572 4761 
Q 2888 4600 3063 4315 
Q 3238 4031 3238 3684 
Q 3238 3366 3058 3086 
Q 2878 2806 2559 2625 
Q 2953 2472 3200 2119 
Q 3447 1766 3447 1350 
Q 3447 938 3250 611 
Q 3053 284 2690 103 
Q 2328 -78 1875 -78 
Q 1425 -78 1065 103 
Q 706 284 506 612 
Q 306 941 306 1350 
z
M 906 1378 
Q 906 947 1172 687 
Q 1438 428 1878 428 
Q 2309 428 2582 692 
Q 2856 956 2856 1378 
Q 2856 1778 2579 2051 
Q 2303 2325 1878 2325 
Q 1456 2325 1181 2058 
Q 906 1791 906 1378 
z
M 1081 3634 
Q 1081 3309 1312 3076 
Q 1544 2844 1878 2844 
Q 2206 2844 2445 3078 
Q 2684 3313 2684 3634 
Q 2684 3963 2454 4191 
Q 2225 4419 1878 4419 
Q 1534 4419 1307 4195 
Q 1081 3972 1081 3634 
z
" transform="scale(0.015625)"/>
       </defs>
       <use xlink:href="#MicrosoftYaHei-38"/>
       <use xlink:href="#MicrosoftYaHei-30" transform="translate(58.642578 0)"/>
       <use xlink:href="#MicrosoftYaHei-30" transform="translate(117.285156 0)"/>
      </g>
     </g>
    </g>
    <g id="xtick_6">
     <g id="line2d_11">
      <path d="M 538.577654 342.399676 
L 538.577654 30.39125 
" clip-path="url(#pad3cfd7694)" style="fill: none; stroke: #cbd5e1; stroke-opacity: 0.55; stroke-width: 0.8; stroke-linecap: square"/>
     </g>
     <g id="line2d_12">
      <g>
       <use xlink:href="#m850e54c927" x="538.577654" y="342.399676" style="fill: #172033; stroke: #172033; stroke-width: 0.8"/>
      </g>
     </g>
     <g id="text_6">
      <!-- 1000 -->
      <g style="fill: #172033" transform="translate(526.849529 357.393426) scale(0.1 -0.1)">
       <defs>
        <path id="MicrosoftYaHei-31" d="M 1781 0 
L 1781 4141 
Q 1638 3997 1295 3819 
Q 953 3641 663 3569 
L 663 4169 
Q 1047 4275 1484 4508 
Q 1922 4741 2156 4947 
L 2388 4947 
L 2388 0 
L 1781 0 
z
" transform="scale(0.015625)"/>
       </defs>
       <use xlink:href="#MicrosoftYaHei-31"/>
       <use xlink:href="#MicrosoftYaHei-30" transform="translate(58.642578 0)"/>
       <use xlink:href="#MicrosoftYaHei-30" transform="translate(117.285156 0)"/>
       <use xlink:href="#MicrosoftYaHei-30" transform="translate(175.927734 0)"/>
      </g>
     </g>
    </g>
    <g id="xtick_7">
     <g id="line2d_13">
      <path d="M 625.281169 342.399676 
L 625.281169 30.39125 
" clip-path="url(#pad3cfd7694)" style="fill: none; stroke: #cbd5e1; stroke-opacity: 0.55; stroke-width: 0.8; stroke-linecap: square"/>
     </g>
     <g id="line2d_14">
      <g>
       <use xlink:href="#m850e54c927" x="625.281169" y="342.399676" style="fill: #172033; stroke: #172033; stroke-width: 0.8"/>
      </g>
     </g>
     <g id="text_7">
      <!-- 1200 -->
      <g style="fill: #172033" transform="translate(613.553044 357.393426) scale(0.1 -0.1)">
       <use xlink:href="#MicrosoftYaHei-31"/>
       <use xlink:href="#MicrosoftYaHei-32" transform="translate(58.642578 0)"/>
       <use xlink:href="#MicrosoftYaHei-30" transform="translate(117.285156 0)"/>
       <use xlink:href="#MicrosoftYaHei-30" transform="translate(175.927734 0)"/>
      </g>
     </g>
    </g>
    <g id="xtick_8">
     <g id="line2d_15">
      <path d="M 711.984684 342.399676 
L 711.984684 30.39125 
" clip-path="url(#pad3cfd7694)" style="fill: none; stroke: #cbd5e1; stroke-opacity: 0.55; stroke-width: 0.8; stroke-linecap: square"/>
     </g>
     <g id="line2d_16">
      <g>
       <use xlink:href="#m850e54c927" x="711.984684" y="342.399676" style="fill: #172033; stroke: #172033; stroke-width: 0.8"/>
      </g>
     </g>
     <g id="text_8">
      <!-- 1400 -->
      <g style="fill: #172033" transform="translate(700.256559 357.393426) scale(0.1 -0.1)">
       <use xlink:href="#MicrosoftYaHei-31"/>
       <use xlink:href="#MicrosoftYaHei-34" transform="translate(58.642578 0)"/>
       <use xlink:href="#MicrosoftYaHei-30" transform="translate(117.285156 0)"/>
       <use xlink:href="#MicrosoftYaHei-30" transform="translate(175.927734 0)"/>
      </g>
     </g>
    </g>
    <g id="xtick_9">
     <g id="line2d_17">
      <path d="M 798.688199 342.399676 
L 798.688199 30.39125 
" clip-path="url(#pad3cfd7694)" style="fill: none; stroke: #cbd5e1; stroke-opacity: 0.55; stroke-width: 0.8; stroke-linecap: square"/>
     </g>
     <g id="line2d_18">
      <g>
       <use xlink:href="#m850e54c927" x="798.688199" y="342.399676" style="fill: #172033; stroke: #172033; stroke-width: 0.8"/>
      </g>
     </g>
     <g id="text_9">
      <!-- 1600 -->
      <g style="fill: #172033" transform="translate(786.960074 357.393426) scale(0.1 -0.1)">
       <use xlink:href="#MicrosoftYaHei-31"/>
       <use xlink:href="#MicrosoftYaHei-36" transform="translate(58.642578 0)"/>
       <use xlink:href="#MicrosoftYaHei-30" transform="translate(117.285156 0)"/>
       <use xlink:href="#MicrosoftYaHei-30" transform="translate(175.927734 0)"/>
      </g>
     </g>
    </g>
    <g id="text_10">
     <!-- Mean life absolute error (cycles), mean ± std -->
     <g style="fill: #172033" transform="translate(360.894955 372.801395) scale(0.11 -0.11)">
      <defs>
       <path id="MicrosoftYaHei-4d" d="M 5003 0 
L 5003 3206 
Q 5003 3603 5050 4159 
L 5034 4159 
Q 4953 3809 4891 3672 
L 3294 0 
L 2947 0 
L 1353 3644 
Q 1297 3769 1209 4159 
L 1191 4159 
Q 1222 3822 1222 3178 
L 1222 0 
L 625 0 
L 625 4841 
L 1472 4841 
L 2900 1522 
Q 3063 1141 3116 928 
L 3138 928 
Q 3300 1375 3366 1534 
L 4819 4841 
L 5625 4841 
L 5625 0 
L 5003 0 
z
" transform="scale(0.015625)"/>
       <path id="MicrosoftYaHei-65" d="M 3363 1572 
L 944 1572 
Q 959 1019 1246 717 
Q 1534 416 2050 416 
Q 2631 416 3116 788 
L 3116 241 
Q 2659 -81 1906 -81 
Q 1156 -81 736 394 
Q 316 869 316 1713 
Q 316 2506 777 3022 
Q 1238 3538 1922 3538 
Q 2600 3538 2981 3102 
Q 3363 2666 3363 1881 
L 3363 1572 
z
M 2750 2063 
Q 2747 2531 2528 2787 
Q 2309 3044 1913 3044 
Q 1547 3044 1280 2772 
Q 1013 2500 944 2063 
L 2750 2063 
z
" transform="scale(0.015625)"/>
       <path id="MicrosoftYaHei-61" d="M 628 3216 
Q 1144 3538 1819 3538 
Q 3069 3538 3069 2225 
L 3069 0 
L 2463 0 
L 2463 534 
L 2447 534 
Q 2088 -81 1388 -81 
Q 884 -81 587 191 
Q 291 463 291 925 
Q 291 1894 1438 2053 
L 2463 2197 
Q 2463 3044 1763 3044 
Q 1141 3044 628 2625 
L 628 3216 
z
M 1653 1625 
Q 1228 1569 1067 1412 
Q 906 1256 906 975 
Q 906 728 1081 572 
Q 1256 416 1544 416 
Q 1944 416 2203 697 
Q 2463 978 2463 1403 
L 2463 1734 
L 1653 1625 
z
" transform="scale(0.015625)"/>
       <path id="MicrosoftYaHei-6e" d="M 3469 0 
L 2859 0 
L 2859 1966 
Q 2859 3031 2081 3031 
Q 1678 3031 1418 2731 
Q 1159 2431 1159 1972 
L 1159 0 
L 547 0 
L 547 3456 
L 1159 3456 
L 1159 2884 
L 1172 2884 
Q 1563 3538 2306 3538 
Q 2875 3538 3172 3173 
Q 3469 2809 3469 2113 
L 3469 0 
z
" transform="scale(0.015625)"/>
       <path id="MicrosoftYaHei-20" transform="scale(0.015625)"/>
       <path id="MicrosoftYaHei-6c" d="M 544 0 
L 544 5116 
L 1156 5116 
L 1156 0 
L 544 0 
z
" transform="scale(0.015625)"/>
       <path id="MicrosoftYaHei-69" d="M 472 4675 
Q 472 4838 583 4948 
Q 694 5059 856 5059 
Q 1022 5059 1136 4950 
Q 1250 4841 1250 4675 
Q 1250 4513 1136 4405 
Q 1022 4297 856 4297 
Q 691 4297 581 4405 
Q 472 4513 472 4675 
z
M 544 0 
L 544 3456 
L 1156 3456 
L 1156 0 
L 544 0 
z
" transform="scale(0.015625)"/>
       <path id="MicrosoftYaHei-66" d="M 2319 4594 
Q 2147 4684 1947 4684 
Q 1372 4684 1372 3972 
L 1372 3456 
L 2181 3456 
L 2181 2950 
L 1372 2950 
L 1372 0 
L 766 0 
L 766 2950 
L 175 2950 
L 175 3456 
L 766 3456 
L 766 4000 
Q 766 4556 1086 4873 
Q 1406 5191 1900 5191 
Q 2163 5191 2319 5131 
L 2319 4594 
z
" transform="scale(0.015625)"/>
       <path id="MicrosoftYaHei-62" d="M 1159 488 
L 1159 0 
L 547 0 
L 547 5116 
L 1159 5116 
L 1159 2859 
L 1172 2859 
Q 1578 3538 2359 3538 
Q 3009 3538 3392 3080 
Q 3775 2622 3775 1828 
Q 3775 953 3345 436 
Q 2916 -81 2200 -81 
Q 1525 -81 1172 488 
L 1159 488 
z
M 1156 1422 
Q 1156 1003 1428 714 
Q 1700 425 2109 425 
Q 2597 425 2872 800 
Q 3147 1175 3147 1838 
Q 3147 2384 2890 2707 
Q 2634 3031 2191 3031 
Q 1741 3031 1448 2709 
Q 1156 2388 1156 1891 
L 1156 1422 
z
" transform="scale(0.015625)"/>
       <path id="MicrosoftYaHei-73" d="M 353 747 
Q 816 413 1350 413 
Q 2066 413 2066 881 
Q 2066 1081 1909 1211 
Q 1753 1341 1275 1519 
Q 700 1750 528 1976 
Q 356 2203 356 2525 
Q 356 2984 745 3261 
Q 1134 3538 1703 3538 
Q 2144 3538 2522 3384 
L 2522 2794 
Q 2134 3044 1644 3044 
Q 1350 3044 1165 2916 
Q 981 2788 981 2578 
Q 981 2372 1114 2256 
Q 1247 2141 1703 1959 
Q 2281 1744 2484 1512 
Q 2688 1281 2688 941 
Q 2688 466 2298 192 
Q 1909 -81 1291 -81 
Q 753 -81 353 122 
L 353 747 
z
" transform="scale(0.015625)"/>
       <path id="MicrosoftYaHei-6f" d="M 316 1691 
Q 316 2547 794 3042 
Q 1272 3538 2091 3538 
Q 2869 3538 3311 3061 
Q 3753 2584 3753 1744 
Q 3753 925 3281 422 
Q 2809 -81 2016 -81 
Q 1241 -81 778 406 
Q 316 894 316 1691 
z
M 941 1709 
Q 941 1113 1242 769 
Q 1544 425 2053 425 
Q 2578 425 2853 761 
Q 3128 1097 3128 1725 
Q 3128 2356 2853 2693 
Q 2578 3031 2053 3031 
Q 1538 3031 1239 2678 
Q 941 2325 941 1709 
z
" transform="scale(0.015625)"/>
       <path id="MicrosoftYaHei-75" d="M 3400 0 
L 2784 0 
L 2784 544 
L 2772 544 
Q 2425 -81 1706 -81 
Q 478 -81 478 1388 
L 478 3456 
L 1084 3456 
L 1084 1478 
Q 1084 425 1891 425 
Q 2291 425 2537 720 
Q 2784 1016 2784 1466 
L 2784 3456 
L 3400 3456 
L 3400 0 
z
" transform="scale(0.015625)"/>
       <path id="MicrosoftYaHei-74" d="M 2206 34 
Q 2006 -75 1666 -75 
Q 738 -75 738 953 
L 738 2950 
L 144 2950 
L 144 3456 
L 738 3456 
L 738 4288 
L 1347 4481 
L 1347 3456 
L 2206 3456 
L 2206 2950 
L 1347 2950 
L 1347 1063 
Q 1347 722 1462 575 
Q 1578 428 1847 428 
Q 2053 428 2206 544 
L 2206 34 
z
" transform="scale(0.015625)"/>
       <path id="MicrosoftYaHei-72" d="M 2400 2850 
Q 2247 2959 1978 2959 
Q 1622 2959 1390 2626 
Q 1159 2294 1159 1750 
L 1159 0 
L 547 0 
L 547 3456 
L 1159 3456 
L 1159 2753 
L 1172 2753 
Q 1434 3516 2078 3516 
Q 2288 3516 2400 3469 
L 2400 2850 
z
" transform="scale(0.015625)"/>
       <path id="MicrosoftYaHei-28" d="M 1531 -1100 
Q 478 100 478 1847 
Q 478 3594 1531 4841 
L 2072 4841 
Q 1016 3544 1016 1853 
Q 1016 166 2066 -1100 
L 1531 -1100 
z
" transform="scale(0.015625)"/>
       <path id="MicrosoftYaHei-63" d="M 2934 156 
Q 2538 -81 1978 -81 
Q 1228 -81 772 400 
Q 316 881 316 1647 
Q 316 2497 808 3017 
Q 1300 3538 2125 3538 
Q 2600 3538 2938 3369 
L 2938 2763 
Q 2572 3031 2125 3031 
Q 1600 3031 1270 2667 
Q 941 2303 941 1697 
Q 941 1100 1252 762 
Q 1563 425 2091 425 
Q 2538 425 2934 719 
L 2934 156 
z
" transform="scale(0.015625)"/>
       <path id="MicrosoftYaHei-79" d="M 3359 3456 
L 1791 -522 
Q 1353 -1628 556 -1628 
Q 328 -1628 166 -1578 
L 166 -1041 
Q 344 -1109 509 -1109 
Q 925 -1109 1131 -622 
L 1397 6 
L 41 3456 
L 719 3456 
L 1622 859 
L 1697 575 
L 1713 575 
Q 1731 672 1788 853 
L 2731 3456 
L 3359 3456 
z
" transform="scale(0.015625)"/>
       <path id="MicrosoftYaHei-29" d="M 78 -1100 
Q 1131 163 1131 1853 
Q 1131 3547 72 4841 
L 616 4841 
Q 1672 3603 1672 1847 
Q 1672 91 616 -1100 
L 78 -1100 
z
" transform="scale(0.015625)"/>
       <path id="MicrosoftYaHei-2c" d="M 1109 778 
L 575 -888 
L 131 -888 
L 519 778 
L 1109 778 
z
" transform="scale(0.015625)"/>
       <path id="MicrosoftYaHei-6d" d="M 5522 0 
L 4909 0 
L 4909 1984 
Q 4909 2547 4734 2789 
Q 4559 3031 4159 3031 
Q 3822 3031 3581 2715 
Q 3341 2400 3341 1969 
L 3341 0 
L 2728 0 
L 2728 2047 
Q 2728 3031 1969 3031 
Q 1619 3031 1389 2731 
Q 1159 2431 1159 1966 
L 1159 0 
L 547 0 
L 547 3456 
L 1159 3456 
L 1159 2909 
L 1172 2909 
Q 1541 3538 2250 3538 
Q 2597 3538 2862 3347 
Q 3128 3156 3231 2831 
Q 3616 3538 4381 3538 
Q 5522 3538 5522 2131 
L 5522 0 
z
" transform="scale(0.015625)"/>
       <path id="MicrosoftYaHei-b1" d="M 3972 2216 
L 2613 2216 
L 2613 859 
L 2147 859 
L 2147 2216 
L 788 2216 
L 788 2691 
L 2147 2691 
L 2147 4047 
L 2613 4047 
L 2613 2691 
L 3972 2691 
L 3972 2216 
z
M 3972 0 
L 788 0 
L 788 475 
L 3972 475 
L 3972 0 
z
" transform="scale(0.015625)"/>
       <path id="MicrosoftYaHei-64" d="M 3547 0 
L 2934 0 
L 2934 575 
L 2922 575 
Q 2544 -81 1747 -81 
Q 1091 -81 703 386 
Q 316 853 316 1647 
Q 316 2503 753 3020 
Q 1191 3538 1897 3538 
Q 2603 3538 2922 2988 
L 2934 2988 
L 2934 5116 
L 3547 5116 
L 3547 0 
z
M 2938 2056 
Q 2938 2472 2664 2751 
Q 2391 3031 1991 3031 
Q 1503 3031 1222 2667 
Q 941 2303 941 1675 
Q 941 1097 1211 761 
Q 1481 425 1931 425 
Q 2375 425 2656 754 
Q 2938 1084 2938 1575 
L 2938 2056 
z
" transform="scale(0.015625)"/>
      </defs>
      <use xlink:href="#MicrosoftYaHei-4d"/>
      <use xlink:href="#MicrosoftYaHei-65" transform="translate(97.705078 0)"/>
      <use xlink:href="#MicrosoftYaHei-61" transform="translate(154.443359 0)"/>
      <use xlink:href="#MicrosoftYaHei-6e" transform="translate(209.716797 0)"/>
      <use xlink:href="#MicrosoftYaHei-20" transform="translate(271.337891 0)"/>
      <use xlink:href="#MicrosoftYaHei-6c" transform="translate(300.927734 0)"/>
      <use xlink:href="#MicrosoftYaHei-69" transform="translate(327.539062 0)"/>
      <use xlink:href="#MicrosoftYaHei-66" transform="translate(354.150391 0)"/>
      <use xlink:href="#MicrosoftYaHei-65" transform="translate(388.818359 0)"/>
      <use xlink:href="#MicrosoftYaHei-20" transform="translate(445.556641 0)"/>
      <use xlink:href="#MicrosoftYaHei-61" transform="translate(475.146484 0)"/>
      <use xlink:href="#MicrosoftYaHei-62" transform="translate(530.419922 0)"/>
      <use xlink:href="#MicrosoftYaHei-73" transform="translate(594.287109 0)"/>
      <use xlink:href="#MicrosoftYaHei-6f" transform="translate(640.576172 0)"/>
      <use xlink:href="#MicrosoftYaHei-6c" transform="translate(704.150391 0)"/>
      <use xlink:href="#MicrosoftYaHei-75" transform="translate(730.761719 0)"/>
      <use xlink:href="#MicrosoftYaHei-74" transform="translate(792.382812 0)"/>
      <use xlink:href="#MicrosoftYaHei-65" transform="translate(828.763672 0)"/>
      <use xlink:href="#MicrosoftYaHei-20" transform="translate(885.501953 0)"/>
      <use xlink:href="#MicrosoftYaHei-65" transform="translate(915.091797 0)"/>
      <use xlink:href="#MicrosoftYaHei-72" transform="translate(971.830078 0)"/>
      <use xlink:href="#MicrosoftYaHei-72" transform="translate(1010.013672 0)"/>
      <use xlink:href="#MicrosoftYaHei-6f" transform="translate(1046.822266 0)"/>
      <use xlink:href="#MicrosoftYaHei-72" transform="translate(1110.396484 0)"/>
      <use xlink:href="#MicrosoftYaHei-20" transform="translate(1148.580078 0)"/>
      <use xlink:href="#MicrosoftYaHei-28" transform="translate(1178.169922 0)"/>
      <use xlink:href="#MicrosoftYaHei-63" transform="translate(1211.568359 0)"/>
      <use xlink:href="#MicrosoftYaHei-79" transform="translate(1261.714844 0)"/>
      <use xlink:href="#MicrosoftYaHei-63" transform="translate(1314.144531 0)"/>
      <use xlink:href="#MicrosoftYaHei-6c" transform="translate(1364.291016 0)"/>
      <use xlink:href="#MicrosoftYaHei-65" transform="translate(1390.902344 0)"/>
      <use xlink:href="#MicrosoftYaHei-73" transform="translate(1447.640625 0)"/>
      <use xlink:href="#MicrosoftYaHei-29" transform="translate(1493.929688 0)"/>
      <use xlink:href="#MicrosoftYaHei-2c" transform="translate(1527.328125 0)"/>
      <use xlink:href="#MicrosoftYaHei-20" transform="translate(1551.400391 0)"/>
      <use xlink:href="#MicrosoftYaHei-6d" transform="translate(1580.990234 0)"/>
      <use xlink:href="#MicrosoftYaHei-65" transform="translate(1674.691406 0)"/>
      <use xlink:href="#MicrosoftYaHei-61" transform="translate(1731.429688 0)"/>
      <use xlink:href="#MicrosoftYaHei-6e" transform="translate(1786.703125 0)"/>
      <use xlink:href="#MicrosoftYaHei-20" transform="translate(1848.324219 0)"/>
      <use xlink:href="#MicrosoftYaHei-b1" transform="translate(1877.914062 0)"/>
      <use xlink:href="#MicrosoftYaHei-20" transform="translate(1952.083984 0)"/>
      <use xlink:href="#MicrosoftYaHei-73" transform="translate(1981.673828 0)"/>
      <use xlink:href="#MicrosoftYaHei-74" transform="translate(2027.962891 0)"/>
      <use xlink:href="#MicrosoftYaHei-64" transform="translate(2063.84375 0)"/>
     </g>
    </g>
   </g>
   <g id="matplotlib.axis_2">
    <g id="ytick_1">
     <g id="line2d_19">
      <defs>
       <path id="mac0063e1cc" d="M 0 0 
L -3.5 0 
" style="stroke: #172033; stroke-width: 0.8"/>
      </defs>
      <g>
       <use xlink:href="#mac0063e1cc" x="105.060078" y="74.430717" style="fill: #172033; stroke: #172033; stroke-width: 0.8"/>
      </g>
     </g>
     <g id="text_11">
      <!-- R2 log-cycle -->
      <g style="fill: #172033" transform="translate(42.295078 78.227748) scale(0.095 -0.095)">
       <defs>
        <path id="MicrosoftYaHei-52" d="M 4159 0 
L 3422 0 
L 2619 1344 
Q 2378 1747 2178 1892 
Q 1978 2038 1700 2038 
L 1250 2038 
L 1250 0 
L 625 0 
L 625 4841 
L 2100 4841 
Q 2806 4841 3206 4500 
Q 3606 4159 3606 3547 
Q 3606 2541 2531 2241 
L 2531 2225 
Q 2731 2141 2876 1984 
Q 3022 1828 3253 1450 
L 4159 0 
z
M 1250 4294 
L 1250 2584 
L 1988 2584 
Q 2416 2584 2683 2834 
Q 2950 3084 2950 3491 
Q 2950 3869 2706 4081 
Q 2463 4294 1997 4294 
L 1250 4294 
z
" transform="scale(0.015625)"/>
        <path id="MicrosoftYaHei-67" d="M 3547 291 
Q 3547 -1628 1684 -1628 
Q 1041 -1628 566 -1388 
L 566 -797 
Q 1144 -1119 1675 -1119 
Q 2934 -1119 2934 206 
L 2934 572 
L 2922 572 
Q 2528 -81 1747 -81 
Q 1097 -81 706 384 
Q 316 850 316 1619 
Q 316 2503 747 3020 
Q 1178 3538 1897 3538 
Q 2588 3538 2922 2988 
L 2934 2988 
L 2934 3456 
L 3547 3456 
L 3547 291 
z
M 2934 2056 
Q 2938 2456 2666 2743 
Q 2394 3031 1997 3031 
Q 1497 3031 1219 2664 
Q 941 2297 941 1656 
Q 941 1106 1209 765 
Q 1478 425 1922 425 
Q 2369 425 2653 750 
Q 2938 1075 2934 1575 
L 2934 2056 
z
" transform="scale(0.015625)"/>
        <path id="MicrosoftYaHei-2d" d="M 2328 1681 
L 488 1681 
L 488 2153 
L 2328 2153 
L 2328 1681 
z
" transform="scale(0.015625)"/>
       </defs>
       <use xlink:href="#MicrosoftYaHei-52"/>
       <use xlink:href="#MicrosoftYaHei-32" transform="translate(65.283203 0)"/>
       <use xlink:href="#MicrosoftYaHei-20" transform="translate(123.925781 0)"/>
       <use xlink:href="#MicrosoftYaHei-6c" transform="translate(153.515625 0)"/>
       <use xlink:href="#MicrosoftYaHei-6f" transform="translate(180.126953 0)"/>
       <use xlink:href="#MicrosoftYaHei-67" transform="translate(243.701172 0)"/>
       <use xlink:href="#MicrosoftYaHei-2d" transform="translate(307.666016 0)"/>
       <use xlink:href="#MicrosoftYaHei-63" transform="translate(350.927734 0)"/>
       <use xlink:href="#MicrosoftYaHei-79" transform="translate(401.074219 0)"/>
       <use xlink:href="#MicrosoftYaHei-63" transform="translate(453.503906 0)"/>
       <use xlink:href="#MicrosoftYaHei-6c" transform="translate(503.650391 0)"/>
       <use xlink:href="#MicrosoftYaHei-65" transform="translate(530.261719 0)"/>
      </g>
     </g>
    </g>
    <g id="ytick_2">
     <g id="line2d_20">
      <g>
       <use xlink:href="#mac0063e1cc" x="105.060078" y="149.073881" style="fill: #172033; stroke: #172033; stroke-width: 0.8"/>
      </g>
     </g>
     <g id="text_12">
      <!-- R3 cycle + log-cycle -->
      <g style="fill: #172033" transform="translate(7.2 152.870912) scale(0.095 -0.095)">
       <defs>
        <path id="MicrosoftYaHei-33" d="M 447 809 
Q 944 425 1569 425 
Q 2069 425 2361 670 
Q 2653 916 2653 1328 
Q 2653 2247 1338 2247 
L 934 2247 
L 934 2753 
L 1319 2753 
Q 2484 2753 2484 3616 
Q 2484 4413 1594 4413 
Q 1084 4413 634 4069 
L 634 4647 
Q 1109 4922 1744 4922 
Q 2363 4922 2738 4598 
Q 3113 4275 3113 3759 
Q 3113 2809 2144 2538 
L 2144 2525 
Q 2669 2469 2973 2155 
Q 3278 1841 3278 1372 
Q 3278 719 2808 319 
Q 2338 -81 1556 -81 
Q 869 -81 447 175 
L 447 809 
z
" transform="scale(0.015625)"/>
        <path id="MicrosoftYaHei-2b" d="M 3972 1772 
L 2613 1772 
L 2613 419 
L 2141 419 
L 2141 1772 
L 788 1772 
L 788 2250 
L 2141 2250 
L 2141 3603 
L 2613 3603 
L 2613 2250 
L 3972 2250 
L 3972 1772 
z
" transform="scale(0.015625)"/>
       </defs>
       <use xlink:href="#MicrosoftYaHei-52"/>
       <use xlink:href="#MicrosoftYaHei-33" transform="translate(65.283203 0)"/>
       <use xlink:href="#MicrosoftYaHei-20" transform="translate(123.925781 0)"/>
       <use xlink:href="#MicrosoftYaHei-63" transform="translate(153.515625 0)"/>
       <use xlink:href="#MicrosoftYaHei-79" transform="translate(203.662109 0)"/>
       <use xlink:href="#MicrosoftYaHei-63" transform="translate(256.091797 0)"/>
       <use xlink:href="#MicrosoftYaHei-6c" transform="translate(306.238281 0)"/>
       <use xlink:href="#MicrosoftYaHei-65" transform="translate(332.849609 0)"/>
       <use xlink:href="#MicrosoftYaHei-20" transform="translate(389.587891 0)"/>
       <use xlink:href="#MicrosoftYaHei-2b" transform="translate(419.177734 0)"/>
       <use xlink:href="#MicrosoftYaHei-20" transform="translate(493.347656 0)"/>
       <use xlink:href="#MicrosoftYaHei-6c" transform="translate(522.9375 0)"/>
       <use xlink:href="#MicrosoftYaHei-6f" transform="translate(549.548828 0)"/>
       <use xlink:href="#MicrosoftYaHei-67" transform="translate(613.123047 0)"/>
       <use xlink:href="#MicrosoftYaHei-2d" transform="translate(677.087891 0)"/>
       <use xlink:href="#MicrosoftYaHei-63" transform="translate(720.349609 0)"/>
       <use xlink:href="#MicrosoftYaHei-79" transform="translate(770.496094 0)"/>
       <use xlink:href="#MicrosoftYaHei-63" transform="translate(822.925781 0)"/>
       <use xlink:href="#MicrosoftYaHei-6c" transform="translate(873.072266 0)"/>
       <use xlink:href="#MicrosoftYaHei-65" transform="translate(899.683594 0)"/>
      </g>
     </g>
    </g>
    <g id="ytick_3">
     <g id="line2d_21">
      <g>
       <use xlink:href="#mac0063e1cc" x="105.060078" y="223.717045" style="fill: #172033; stroke: #172033; stroke-width: 0.8"/>
      </g>
     </g>
     <g id="text_13">
      <!-- R1 static ratios -->
      <g style="fill: #172033" transform="translate(31.261719 227.514076) scale(0.095 -0.095)">
       <use xlink:href="#MicrosoftYaHei-52"/>
       <use xlink:href="#MicrosoftYaHei-31" transform="translate(65.283203 0)"/>
       <use xlink:href="#MicrosoftYaHei-20" transform="translate(123.925781 0)"/>
       <use xlink:href="#MicrosoftYaHei-73" transform="translate(153.515625 0)"/>
       <use xlink:href="#MicrosoftYaHei-74" transform="translate(199.804688 0)"/>
       <use xlink:href="#MicrosoftYaHei-61" transform="translate(237.060547 0)"/>
       <use xlink:href="#MicrosoftYaHei-74" transform="translate(292.333984 0)"/>
       <use xlink:href="#MicrosoftYaHei-69" transform="translate(329.589844 0)"/>
       <use xlink:href="#MicrosoftYaHei-63" transform="translate(356.201172 0)"/>
       <use xlink:href="#MicrosoftYaHei-20" transform="translate(406.347656 0)"/>
       <use xlink:href="#MicrosoftYaHei-72" transform="translate(435.9375 0)"/>
       <use xlink:href="#MicrosoftYaHei-61" transform="translate(474.121094 0)"/>
       <use xlink:href="#MicrosoftYaHei-74" transform="translate(529.394531 0)"/>
       <use xlink:href="#MicrosoftYaHei-69" transform="translate(566.650391 0)"/>
       <use xlink:href="#MicrosoftYaHei-6f" transform="translate(593.261719 0)"/>
       <use xlink:href="#MicrosoftYaHei-73" transform="translate(656.835938 0)"/>
      </g>
     </g>
    </g>
    <g id="ytick_4">
     <g id="line2d_22">
      <g>
       <use xlink:href="#mac0063e1cc" x="105.060078" y="298.360209" style="fill: #172033; stroke: #172033; stroke-width: 0.8"/>
      </g>
     </g>
     <g id="text_14">
      <!-- 5D baseline -->
      <g style="fill: #172033" transform="translate(45.164375 302.157241) scale(0.095 -0.095)">
       <defs>
        <path id="MicrosoftYaHei-35" d="M 3294 1494 
Q 3294 784 2823 350 
Q 2353 -84 1559 -84 
Q 878 -84 544 119 
L 544 744 
Q 1034 425 1544 425 
Q 2050 425 2361 704 
Q 2672 984 2672 1447 
Q 2672 1909 2348 2167 
Q 2025 2425 1434 2425 
Q 978 2425 613 2384 
L 791 4841 
L 3053 4841 
L 3053 4303 
L 1306 4303 
L 1206 2931 
L 1647 2950 
Q 2416 2950 2855 2567 
Q 3294 2184 3294 1494 
z
" transform="scale(0.015625)"/>
        <path id="MicrosoftYaHei-44" d="M 625 0 
L 625 4841 
L 2006 4841 
Q 3106 4841 3836 4200 
Q 4566 3559 4566 2481 
Q 4566 1356 3836 678 
Q 3106 0 1956 0 
L 625 0 
z
M 1250 4284 
L 1250 553 
L 1953 553 
Q 2875 553 3392 1056 
Q 3909 1559 3909 2466 
Q 3909 3372 3378 3828 
Q 2847 4284 1981 4284 
L 1250 4284 
z
" transform="scale(0.015625)"/>
       </defs>
       <use xlink:href="#MicrosoftYaHei-35"/>
       <use xlink:href="#MicrosoftYaHei-44" transform="translate(58.642578 0)"/>
       <use xlink:href="#MicrosoftYaHei-20" transform="translate(134.814453 0)"/>
       <use xlink:href="#MicrosoftYaHei-62" transform="translate(164.404297 0)"/>
       <use xlink:href="#MicrosoftYaHei-61" transform="translate(226.896484 0)"/>
       <use xlink:href="#MicrosoftYaHei-73" transform="translate(282.169922 0)"/>
       <use xlink:href="#MicrosoftYaHei-65" transform="translate(328.458984 0)"/>
       <use xlink:href="#MicrosoftYaHei-6c" transform="translate(385.197266 0)"/>
       <use xlink:href="#MicrosoftYaHei-69" transform="translate(411.808594 0)"/>
       <use xlink:href="#MicrosoftYaHei-6e" transform="translate(438.419922 0)"/>
       <use xlink:href="#MicrosoftYaHei-65" transform="translate(500.041016 0)"/>
      </g>
     </g>
    </g>
   </g>
   <g id="patch_3">
    <path d="M 105.060078 44.573451 
L 436.28556 44.573451 
L 436.28556 104.287983 
L 105.060078 104.287983 
z
" clip-path="url(#pad3cfd7694)" style="fill: #2563eb; opacity: 0.86; stroke: #ffffff; stroke-linejoin: miter"/>
   </g>
   <g id="patch_4">
    <path d="M 105.060078 119.216615 
L 452.207252 119.216615 
L 452.207252 178.931147 
L 105.060078 178.931147 
z
" clip-path="url(#pad3cfd7694)" style="fill: #2563eb; opacity: 0.86; stroke: #ffffff; stroke-linejoin: miter"/>
   </g>
   <g id="patch_5">
    <path d="M 105.060078 193.85978 
L 550.735687 193.85978 
L 550.735687 253.574311 
L 105.060078 253.574311 
z
" clip-path="url(#pad3cfd7694)" style="fill: #2563eb; opacity: 0.86; stroke: #ffffff; stroke-linejoin: miter"/>
   </g>
   <g id="patch_6">
    <path d="M 105.060078 268.502944 
L 703.751814 268.502944 
L 703.751814 328.217475 
L 105.060078 328.217475 
z
" clip-path="url(#pad3cfd7694)" style="fill: #2563eb; opacity: 0.86; stroke: #ffffff; stroke-linejoin: miter"/>
   </g>
   <g id="LineCollection_1">
    <path d="M 409.519472 74.430717 
L 463.051648 74.430717 
" clip-path="url(#pad3cfd7694)" style="fill: none; stroke: #000000; stroke-width: 1.5"/>
    <path d="M 267.959336 149.073881 
L 636.455168 149.073881 
" clip-path="url(#pad3cfd7694)" style="fill: none; stroke: #000000; stroke-width: 1.5"/>
    <path d="M 524.236828 223.717045 
L 577.234546 223.717045 
" clip-path="url(#pad3cfd7694)" style="fill: none; stroke: #000000; stroke-width: 1.5"/>
    <path d="M 680.994014 298.360209 
L 726.509613 298.360209 
" clip-path="url(#pad3cfd7694)" style="fill: none; stroke: #000000; stroke-width: 1.5"/>
   </g>
   <g id="line2d_23">
    <defs>
     <path id="m18705574f1" d="M 0 4 
L 0 -4 
" style="stroke: #000000"/>
    </defs>
    <g clip-path="url(#pad3cfd7694)">
     <use xlink:href="#m18705574f1" x="409.519472" y="74.430717" style="fill: #1f77b4; stroke: #000000"/>
     <use xlink:href="#m18705574f1" x="267.959336" y="149.073881" style="fill: #1f77b4; stroke: #000000"/>
     <use xlink:href="#m18705574f1" x="524.236828" y="223.717045" style="fill: #1f77b4; stroke: #000000"/>
     <use xlink:href="#m18705574f1" x="680.994014" y="298.360209" style="fill: #1f77b4; stroke: #000000"/>
    </g>
   </g>
   <g id="line2d_24">
    <g clip-path="url(#pad3cfd7694)">
     <use xlink:href="#m18705574f1" x="463.051648" y="74.430717" style="fill: #1f77b4; stroke: #000000"/>
     <use xlink:href="#m18705574f1" x="636.455168" y="149.073881" style="fill: #1f77b4; stroke: #000000"/>
     <use xlink:href="#m18705574f1" x="577.234546" y="223.717045" style="fill: #1f77b4; stroke: #000000"/>
     <use xlink:href="#m18705574f1" x="726.509613" y="298.360209" style="fill: #1f77b4; stroke: #000000"/>
    </g>
   </g>
   <g id="patch_7">
    <path d="M 105.060078 342.399676 
L 105.060078 30.39125 
" style="fill: none; stroke: #cbd5e1; stroke-width: 0.8; stroke-linejoin: miter; stroke-linecap: square"/>
   </g>
   <g id="patch_8">
    <path d="M 105.060078 342.399676 
L 850.79952 342.399676 
" style="fill: none; stroke: #cbd5e1; stroke-width: 0.8; stroke-linejoin: miter; stroke-linecap: square"/>
   </g>
   <g id="text_15">
    <!-- 764 -->
    <g style="fill: #172033" transform="translate(472.000521 76.909232) scale(0.09 -0.09)">
     <defs>
      <path id="MicrosoftYaHei-37" d="M 3422 4463 
Q 2659 3131 2223 1998 
Q 1788 866 1684 0 
L 1047 0 
Q 1163 853 1594 1947 
Q 2025 3041 2747 4300 
L 347 4300 
L 347 4841 
L 3422 4841 
L 3422 4463 
z
" transform="scale(0.015625)"/>
     </defs>
     <use xlink:href="#MicrosoftYaHei-37"/>
     <use xlink:href="#MicrosoftYaHei-36" transform="translate(58.642578 0)"/>
     <use xlink:href="#MicrosoftYaHei-34" transform="translate(117.285156 0)"/>
    </g>
   </g>
   <g id="text_16">
    <!-- 801 -->
    <g style="fill: #172033" transform="translate(645.404041 151.552397) scale(0.09 -0.09)">
     <use xlink:href="#MicrosoftYaHei-38"/>
     <use xlink:href="#MicrosoftYaHei-30" transform="translate(58.642578 0)"/>
     <use xlink:href="#MicrosoftYaHei-31" transform="translate(117.285156 0)"/>
    </g>
   </g>
   <g id="text_17">
    <!-- 1028 -->
    <g style="fill: #172033" transform="translate(586.183419 226.195561) scale(0.09 -0.09)">
     <use xlink:href="#MicrosoftYaHei-31"/>
     <use xlink:href="#MicrosoftYaHei-30" transform="translate(58.642578 0)"/>
     <use xlink:href="#MicrosoftYaHei-32" transform="translate(117.285156 0)"/>
     <use xlink:href="#MicrosoftYaHei-38" transform="translate(175.927734 0)"/>
    </g>
   </g>
   <g id="text_18">
    <!-- 1381 -->
    <g style="fill: #172033" transform="translate(735.458486 300.838725) scale(0.09 -0.09)">
     <use xlink:href="#MicrosoftYaHei-31"/>
     <use xlink:href="#MicrosoftYaHei-33" transform="translate(58.642578 0)"/>
     <use xlink:href="#MicrosoftYaHei-38" transform="translate(117.285156 0)"/>
     <use xlink:href="#MicrosoftYaHei-31" transform="translate(175.927734 0)"/>
    </g>
   </g>
   <g id="text_19">
    <!-- Module 1 Feature Engineering: Coarse Screening -->
    <g style="fill: #172033" transform="translate(306.873862 18.39125) scale(0.14 -0.14)">
     <defs>
      <path id="MicrosoftYaHei-Bold-4d" d="M 4991 0 
L 4991 2938 
Q 4991 3344 5031 3959 
L 5006 3959 
Q 4913 3494 4856 3338 
L 3663 0 
L 2841 0 
L 1631 3306 
Q 1588 3425 1478 3959 
L 1450 3959 
Q 1491 3350 1491 2738 
L 1491 0 
L 559 0 
L 559 4841 
L 2059 4841 
L 3103 1916 
Q 3234 1553 3281 1234 
L 3303 1234 
Q 3400 1631 3503 1922 
L 4550 4841 
L 6009 4841 
L 6009 0 
L 4991 0 
z
" transform="scale(0.015625)"/>
      <path id="MicrosoftYaHei-Bold-6f" d="M 253 1713 
Q 253 2566 764 3053 
Q 1275 3541 2138 3541 
Q 2972 3541 3462 3061 
Q 3953 2581 3953 1772 
Q 3953 922 3450 419 
Q 2947 -84 2088 -84 
Q 1244 -84 748 398 
Q 253 881 253 1713 
z
M 1275 1725 
Q 1275 691 2119 691 
Q 2928 691 2928 1753 
Q 2928 2766 2113 2766 
Q 1716 2766 1495 2494 
Q 1275 2222 1275 1725 
z
" transform="scale(0.015625)"/>
      <path id="MicrosoftYaHei-Bold-64" d="M 3794 0 
L 2788 0 
L 2788 488 
L 2772 488 
Q 2406 -84 1691 -84 
Q 1031 -84 642 381 
Q 253 847 253 1650 
Q 253 2500 689 3020 
Q 1125 3541 1828 3541 
Q 2503 3541 2772 3053 
L 2788 3053 
L 2788 5116 
L 3794 5116 
L 3794 0 
z
M 2803 1956 
Q 2803 2306 2592 2536 
Q 2381 2766 2066 2766 
Q 1697 2766 1486 2473 
Q 1275 2181 1275 1681 
Q 1275 1206 1478 948 
Q 1681 691 2038 691 
Q 2372 691 2587 962 
Q 2803 1234 2803 1669 
L 2803 1956 
z
" transform="scale(0.015625)"/>
      <path id="MicrosoftYaHei-Bold-75" d="M 3691 0 
L 2688 0 
L 2688 528 
L 2672 528 
Q 2284 -84 1613 -84 
Q 406 -84 406 1372 
L 406 3456 
L 1416 3456 
L 1416 1466 
Q 1416 691 2022 691 
Q 2325 691 2506 903 
Q 2688 1116 2688 1478 
L 2688 3456 
L 3691 3456 
L 3691 0 
z
" transform="scale(0.015625)"/>
      <path id="MicrosoftYaHei-Bold-6c" d="M 444 0 
L 444 5116 
L 1450 5116 
L 1450 0 
L 444 0 
z
" transform="scale(0.015625)"/>
      <path id="MicrosoftYaHei-Bold-65" d="M 3528 1444 
L 1253 1444 
Q 1306 641 2222 641 
Q 2794 641 3231 922 
L 3231 181 
Q 2759 -84 1994 -84 
Q 1169 -84 711 381 
Q 253 847 253 1678 
Q 253 2506 740 3023 
Q 1228 3541 1966 3541 
Q 2700 3541 3114 3095 
Q 3528 2650 3528 1872 
L 3528 1444 
z
M 2588 2075 
Q 2588 2850 1959 2850 
Q 1700 2850 1500 2637 
Q 1300 2425 1250 2075 
L 2588 2075 
z
" transform="scale(0.015625)"/>
      <path id="MicrosoftYaHei-Bold-20" transform="scale(0.015625)"/>
      <path id="MicrosoftYaHei-Bold-31" d="M 2716 4947 
L 2716 0 
L 1700 0 
L 1700 3809 
Q 1513 3647 1188 3517 
Q 863 3388 591 3356 
L 591 4222 
Q 1447 4472 2072 4947 
L 2716 4947 
z
" transform="scale(0.015625)"/>
      <path id="MicrosoftYaHei-Bold-46" d="M 3319 3997 
L 1591 3997 
L 1591 2753 
L 3181 2753 
L 3181 1909 
L 1591 1909 
L 1591 0 
L 559 0 
L 559 4841 
L 3319 4841 
L 3319 3997 
z
" transform="scale(0.015625)"/>
      <path id="MicrosoftYaHei-Bold-61" d="M 544 3247 
Q 778 3378 1170 3459 
Q 1563 3541 1841 3541 
Q 3291 3541 3291 2088 
L 3291 0 
L 2331 0 
L 2331 503 
L 2319 503 
Q 1966 -84 1284 -84 
Q 794 -84 498 195 
Q 203 475 203 956 
Q 203 1950 1388 2113 
L 2338 2241 
Q 2338 2844 1709 2844 
Q 1091 2844 544 2469 
L 544 3247 
z
M 1684 1566 
Q 1138 1494 1138 1072 
Q 1138 878 1270 759 
Q 1403 641 1628 641 
Q 1938 641 2138 859 
Q 2338 1078 2338 1403 
L 2338 1650 
L 1684 1566 
z
" transform="scale(0.015625)"/>
      <path id="MicrosoftYaHei-Bold-74" d="M 2494 41 
Q 2266 -84 1803 -84 
Q 703 -84 703 1072 
L 703 2703 
L 134 2703 
L 134 3456 
L 703 3456 
L 703 4216 
L 1706 4503 
L 1706 3456 
L 2494 3456 
L 2494 2703 
L 1706 2703 
L 1706 1247 
Q 1706 694 2144 694 
Q 2313 694 2494 794 
L 2494 41 
z
" transform="scale(0.015625)"/>
      <path id="MicrosoftYaHei-Bold-72" d="M 2663 2541 
Q 2478 2647 2216 2647 
Q 1872 2647 1670 2384 
Q 1469 2122 1469 1663 
L 1469 0 
L 459 0 
L 459 3456 
L 1469 3456 
L 1469 2806 
L 1481 2806 
Q 1731 3516 2391 3516 
Q 2569 3516 2663 3475 
L 2663 2541 
z
" transform="scale(0.015625)"/>
      <path id="MicrosoftYaHei-Bold-45" d="M 3425 0 
L 559 0 
L 559 4841 
L 3313 4841 
L 3313 3997 
L 1591 3997 
L 1591 2856 
L 3191 2856 
L 3191 2016 
L 1591 2016 
L 1591 844 
L 3425 844 
L 3425 0 
z
" transform="scale(0.015625)"/>
      <path id="MicrosoftYaHei-Bold-6e" d="M 3744 0 
L 2741 0 
L 2741 1928 
Q 2741 2766 2138 2766 
Q 1850 2766 1659 2542 
Q 1469 2319 1469 1972 
L 1469 0 
L 459 0 
L 459 3456 
L 1469 3456 
L 1469 2906 
L 1481 2906 
Q 1859 3541 2594 3541 
Q 3744 3541 3744 2116 
L 3744 0 
z
" transform="scale(0.015625)"/>
      <path id="MicrosoftYaHei-Bold-67" d="M 3800 381 
Q 3800 -581 3251 -1101 
Q 2703 -1622 1672 -1622 
Q 972 -1622 559 -1422 
L 559 -559 
Q 1097 -872 1644 -872 
Q 2184 -872 2489 -583 
Q 2794 -294 2794 219 
L 2794 506 
L 2778 506 
Q 2413 -84 1691 -84 
Q 1038 -84 645 381 
Q 253 847 253 1628 
Q 253 2500 686 3020 
Q 1119 3541 1822 3541 
Q 2459 3541 2778 3044 
L 2794 3044 
L 2794 3456 
L 3800 3456 
L 3800 381 
z
M 2803 1950 
Q 2803 2294 2595 2530 
Q 2388 2766 2072 2766 
Q 1703 2766 1489 2477 
Q 1275 2188 1275 1666 
Q 1275 1213 1481 952 
Q 1688 691 2028 691 
Q 2372 691 2587 956 
Q 2803 1222 2803 1647 
L 2803 1950 
z
" transform="scale(0.015625)"/>
      <path id="MicrosoftYaHei-Bold-69" d="M 369 4572 
Q 369 4803 533 4948 
Q 697 5094 953 5094 
Q 1216 5094 1378 4945 
Q 1541 4797 1541 4572 
Q 1541 4344 1375 4192 
Q 1209 4041 953 4041 
Q 700 4041 534 4194 
Q 369 4347 369 4572 
z
M 444 0 
L 444 3456 
L 1450 3456 
L 1450 0 
L 444 0 
z
" transform="scale(0.015625)"/>
      <path id="MicrosoftYaHei-Bold-3a" d="M 313 2969 
Q 313 3200 491 3350 
Q 669 3500 916 3500 
Q 1166 3500 1337 3350 
Q 1509 3200 1509 2969 
Q 1509 2728 1337 2579 
Q 1166 2431 903 2431 
Q 653 2431 483 2584 
Q 313 2738 313 2969 
z
M 313 453 
Q 313 688 491 838 
Q 669 988 916 988 
Q 1166 988 1337 834 
Q 1509 681 1509 453 
Q 1509 213 1337 64 
Q 1166 -84 903 -84 
Q 659 -84 486 69 
Q 313 222 313 453 
z
" transform="scale(0.015625)"/>
      <path id="MicrosoftYaHei-Bold-43" d="M 4013 175 
Q 3484 -84 2634 -84 
Q 1541 -84 898 570 
Q 256 1225 256 2316 
Q 256 3463 973 4192 
Q 1691 4922 2825 4922 
Q 3534 4922 4013 4738 
L 4013 3741 
Q 3522 4028 2900 4028 
Q 2191 4028 1766 3575 
Q 1341 3122 1341 2391 
Q 1341 1678 1744 1243 
Q 2147 809 2834 809 
Q 3481 809 4013 1122 
L 4013 175 
z
" transform="scale(0.015625)"/>
      <path id="MicrosoftYaHei-Bold-73" d="M 369 928 
Q 888 613 1384 613 
Q 2009 613 2009 947 
Q 2009 1184 1494 1344 
Q 850 1544 609 1789 
Q 369 2034 369 2453 
Q 369 2963 781 3252 
Q 1194 3541 1863 3541 
Q 2338 3541 2778 3400 
L 2778 2606 
Q 2375 2844 1891 2844 
Q 1650 2844 1503 2758 
Q 1356 2672 1356 2531 
Q 1356 2294 1794 2147 
Q 2263 1991 2498 1862 
Q 2734 1734 2857 1525 
Q 2981 1316 2981 1041 
Q 2981 506 2553 211 
Q 2125 -84 1409 -84 
Q 847 -84 369 94 
L 369 928 
z
" transform="scale(0.015625)"/>
      <path id="MicrosoftYaHei-Bold-53" d="M 338 1219 
Q 922 734 1666 734 
Q 2088 734 2300 879 
Q 2513 1025 2513 1253 
Q 2513 1450 2344 1625 
Q 2175 1800 1453 2100 
Q 319 2581 319 3500 
Q 319 4175 833 4548 
Q 1347 4922 2194 4922 
Q 2903 4922 3384 4738 
L 3384 3769 
Q 2897 4100 2244 4100 
Q 1863 4100 1634 3961 
Q 1406 3822 1406 3588 
Q 1406 3400 1562 3242 
Q 1719 3084 2334 2816 
Q 3056 2506 3326 2162 
Q 3597 1819 3597 1344 
Q 3597 647 3103 281 
Q 2609 -84 1700 -84 
Q 869 -84 338 184 
L 338 1219 
z
" transform="scale(0.015625)"/>
      <path id="MicrosoftYaHei-Bold-63" d="M 3050 128 
Q 2688 -84 2019 -84 
Q 1228 -84 740 397 
Q 253 878 253 1644 
Q 253 2525 778 3033 
Q 1303 3541 2178 3541 
Q 2769 3541 3053 3378 
L 3053 2513 
Q 2706 2766 2297 2766 
Q 1834 2766 1554 2484 
Q 1275 2203 1275 1713 
Q 1275 1238 1540 964 
Q 1806 691 2263 691 
Q 2666 691 3050 947 
L 3050 128 
z
" transform="scale(0.015625)"/>
     </defs>
     <use xlink:href="#MicrosoftYaHei-Bold-4d"/>
     <use xlink:href="#MicrosoftYaHei-Bold-6f" transform="translate(102.832031 0)"/>
     <use xlink:href="#MicrosoftYaHei-Bold-64" transform="translate(168.554688 0)"/>
     <use xlink:href="#MicrosoftYaHei-Bold-75" transform="translate(235.009766 0)"/>
     <use xlink:href="#MicrosoftYaHei-Bold-6c" transform="translate(299.804688 0)"/>
     <use xlink:href="#MicrosoftYaHei-Bold-65" transform="translate(329.394531 0)"/>
     <use xlink:href="#MicrosoftYaHei-Bold-20" transform="translate(387.597656 0)"/>
     <use xlink:href="#MicrosoftYaHei-Bold-31" transform="translate(417.382812 0)"/>
     <use xlink:href="#MicrosoftYaHei-Bold-20" transform="translate(479.052734 0)"/>
     <use xlink:href="#MicrosoftYaHei-Bold-46" transform="translate(508.837891 0)"/>
     <use xlink:href="#MicrosoftYaHei-Bold-65" transform="translate(564.648438 0)"/>
     <use xlink:href="#MicrosoftYaHei-Bold-61" transform="translate(622.851562 0)"/>
     <use xlink:href="#MicrosoftYaHei-Bold-74" transform="translate(680.615234 0)"/>
     <use xlink:href="#MicrosoftYaHei-Bold-75" transform="translate(722.021484 0)"/>
     <use xlink:href="#MicrosoftYaHei-Bold-72" transform="translate(786.816406 0)"/>
     <use xlink:href="#MicrosoftYaHei-Bold-65" transform="translate(828.699219 0)"/>
     <use xlink:href="#MicrosoftYaHei-Bold-20" transform="translate(886.902344 0)"/>
     <use xlink:href="#MicrosoftYaHei-Bold-45" transform="translate(916.6875 0)"/>
     <use xlink:href="#MicrosoftYaHei-Bold-6e" transform="translate(973.865234 0)"/>
     <use xlink:href="#MicrosoftYaHei-Bold-67" transform="translate(1038.660156 0)"/>
     <use xlink:href="#MicrosoftYaHei-Bold-69" transform="translate(1105.115234 0)"/>
     <use xlink:href="#MicrosoftYaHei-Bold-6e" transform="translate(1134.705078 0)"/>
     <use xlink:href="#MicrosoftYaHei-Bold-65" transform="translate(1199.5 0)"/>
     <use xlink:href="#MicrosoftYaHei-Bold-65" transform="translate(1257.703125 0)"/>
     <use xlink:href="#MicrosoftYaHei-Bold-72" transform="translate(1315.90625 0)"/>
     <use xlink:href="#MicrosoftYaHei-Bold-69" transform="translate(1358.664062 0)"/>
     <use xlink:href="#MicrosoftYaHei-Bold-6e" transform="translate(1388.253906 0)"/>
     <use xlink:href="#MicrosoftYaHei-Bold-67" transform="translate(1453.048828 0)"/>
     <use xlink:href="#MicrosoftYaHei-Bold-3a" transform="translate(1519.503906 0)"/>
     <use xlink:href="#MicrosoftYaHei-Bold-20" transform="translate(1548.068359 0)"/>
     <use xlink:href="#MicrosoftYaHei-Bold-43" transform="translate(1577.853516 0)"/>
     <use xlink:href="#MicrosoftYaHei-Bold-6f" transform="translate(1645.1875 0)"/>
     <use xlink:href="#MicrosoftYaHei-Bold-61" transform="translate(1709.785156 0)"/>
     <use xlink:href="#MicrosoftYaHei-Bold-72" transform="translate(1767.548828 0)"/>
     <use xlink:href="#MicrosoftYaHei-Bold-73" transform="translate(1810.556641 0)"/>
     <use xlink:href="#MicrosoftYaHei-Bold-65" transform="translate(1859.921875 0)"/>
     <use xlink:href="#MicrosoftYaHei-Bold-20" transform="translate(1918.125 0)"/>
     <use xlink:href="#MicrosoftYaHei-Bold-53" transform="translate(1947.910156 0)"/>
     <use xlink:href="#MicrosoftYaHei-Bold-63" transform="translate(2008.066406 0)"/>
     <use xlink:href="#MicrosoftYaHei-Bold-72" transform="translate(2059.726562 0)"/>
     <use xlink:href="#MicrosoftYaHei-Bold-65" transform="translate(2101.609375 0)"/>
     <use xlink:href="#MicrosoftYaHei-Bold-65" transform="translate(2159.8125 0)"/>
     <use xlink:href="#MicrosoftYaHei-Bold-6e" transform="translate(2218.015625 0)"/>
     <use xlink:href="#MicrosoftYaHei-Bold-69" transform="translate(2282.810547 0)"/>
     <use xlink:href="#MicrosoftYaHei-Bold-6e" transform="translate(2312.400391 0)"/>
     <use xlink:href="#MicrosoftYaHei-Bold-67" transform="translate(2377.195312 0)"/>
    </g>
   </g>
  </g>
 </g>
 <defs>
  <clipPath id="pad3cfd7694">
   <rect x="105.060078" y="30.39125" width="745.739442" height="312.008426"/>
  </clipPath>
 </defs>
</svg>
